<svg width="32" height="32" viewBox="0 0 32 32" fill="none" xmlns="http://www.w3.org/2000/svg">
    <path d="M28.7125 17.7125L16.7125 29.7125C16.5229 29.9003 16.2669 30.0056 16 30.0056C15.7332 30.0056 15.4771 29.9003 15.2875 29.7125L3.28751 17.7125C3.15185 17.5679 3.0599 17.3879 3.0223 17.1932C2.98469 16.9985 3.00297 16.7972 3.07501 16.6125C3.15151 16.4305 3.28018 16.2752 3.44479 16.1662C3.6094 16.0572 3.80259 15.9994 4.00001 16H9.00001V6C9.00001 5.46957 9.21073 4.96086 9.5858 4.58579C9.96087 4.21071 10.4696 4 11 4H21C21.5304 4 22.0392 4.21071 22.4142 4.58579C22.7893 4.96086 23 5.46957 23 6V16H28C28.1974 15.9994 28.3906 16.0572 28.5552 16.1662C28.7198 16.2752 28.8485 16.4305 28.925 16.6125C28.9971 16.7972 29.0153 16.9985 28.9777 17.1932C28.9401 17.3879 28.8482 17.5679 28.7125 17.7125Z"
          fill="black"/>
</svg>
