<svg width="32" height="32" viewBox="0 0 32 32" fill="none" xmlns="http://www.w3.org/2000/svg">
    <path d="M28.925 15.3875C28.8485 15.5695 28.7198 15.7248 28.5552 15.8338C28.3906 15.9428 28.1974 16.0006 28 16H23V26C23 26.5304 22.7893 27.0392 22.4142 27.4142C22.0392 27.7893 21.5304 28 21 28H11C10.4696 28 9.96087 27.7893 9.5858 27.4142C9.21073 27.0392 9.00001 26.5304 9.00001 26V16H4.00001C3.80259 16.0006 3.6094 15.9428 3.44479 15.8338C3.28018 15.7248 3.15151 15.5695 3.07501 15.3875C3.00297 15.2028 2.98469 15.0015 3.0223 14.8068C3.0599 14.6121 3.15185 14.4321 3.28751 14.2875L15.2875 2.28751C15.4771 2.09973 15.7332 1.99438 16 1.99438C16.2669 1.99438 16.5229 2.09973 16.7125 2.28751L28.7125 14.2875C28.8482 14.4321 28.9401 14.6121 28.9777 14.8068C29.0153 15.0015 28.9971 15.2028 28.925 15.3875Z"
          fill="black"/>
</svg>
