<svg width="32" height="32" viewBox="0 0 32 32" fill="none" xmlns="http://www.w3.org/2000/svg">
<path d="M14.2875 28.7125L2.28751 16.7125C2.09973 16.5229 1.99438 16.2669 1.99438 16C1.99438 15.7332 2.09973 15.4771 2.28751 15.2875L14.2875 3.28751C14.4321 3.15185 14.6121 3.0599 14.8068 3.0223C15.0015 2.98469 15.2028 3.00297 15.3875 3.07501C15.5695 3.15151 15.7248 3.28018 15.8338 3.44479C15.9428 3.6094 16.0006 3.80259 16 4.00001V9.00001H26C26.5304 9.00001 27.0392 9.21073 27.4142 9.5858C27.7893 9.96087 28 10.4696 28 11V21C28 21.5304 27.7893 22.0392 27.4142 22.4142C27.0392 22.7893 26.5304 23 26 23H16V28C16.0006 28.1974 15.9428 28.3906 15.8338 28.5552C15.7248 28.7198 15.5695 28.8485 15.3875 28.925C15.2028 28.9971 15.0015 29.0153 14.8068 28.9777C14.6121 28.9401 14.4321 28.8482 14.2875 28.7125Z" fill="black"/>
</svg>
