<?xml version="1.0" standalone="no"?><!DOCTYPE svg PUBLIC "-//W3C//DTD SVG 1.1//EN"
        "http://www.w3.org/Graphics/SVG/1.1/DTD/svg11.dtd">
<svg t="1670315197320" class="icon" viewBox="0 0 1024 1024" version="1.1" xmlns="http://www.w3.org/2000/svg" p-id="3000"
     width="16" height="16">
    <path d="M170.666667 213.333333h704v512H170.666667z" fill="#D9ECFF" p-id="3001"></path>
    <path d="M853.333333 234.666667v469.333333H192V234.666667h661.333333m21.333334-42.666667H170.666667a21.333333 21.333333 0 0 0-21.333334 21.333333v512a21.333333 21.333333 0 0 0 21.333334 21.333334h704a21.333333 21.333333 0 0 0 21.333333-21.333334V213.333333a21.333333 21.333333 0 0 0-21.333333-21.333333z"
          fill="#409EFF" p-id="3002"></path>
    <path d="M170.666667 597.333333h704v128H170.666667z" fill="#FFFFFF" p-id="3003"></path>
    <path d="M853.333333 618.666667v85.333333H192v-85.333333h661.333333m21.333334-42.666667H170.666667a21.333333 21.333333 0 0 0-21.333334 21.333333v128a21.333333 21.333333 0 0 0 21.333334 21.333334h704a21.333333 21.333333 0 0 0 21.333333-21.333334v-128a21.333333 21.333333 0 0 0-21.333333-21.333333z"
          fill="#409EFF" p-id="3004"></path>
    <path d="M277.333333 810.666667m21.333334 0l469.333333 0q21.333333 0 21.333333 21.333333l0 0q0 21.333333-21.333333 21.333333l-469.333333 0q-21.333333 0-21.333334-21.333333l0 0q0-21.333333 21.333334-21.333333Z"
          fill="#E6A23C" p-id="3005"></path>
    <path d="M768 810.666667H298.666667a21.333333 21.333333 0 0 0 0 42.666666h469.333333a21.333333 21.333333 0 0 0 0-42.666666zM554.666667 746.666667h-42.666667v64h42.666667v-64z"
          fill="#E6A23C" p-id="3006"></path>
</svg>