<svg width="32" height="32" viewBox="0 0 32 32" fill="none" xmlns="http://www.w3.org/2000/svg">
<path d="M17.4125 16L25.7125 7.71246C25.872 7.51817 25.9535 7.2715 25.9411 7.02045C25.9288 6.7694 25.8235 6.53191 25.6458 6.35417C25.4681 6.17644 25.2306 6.07117 24.9795 6.05884C24.7285 6.04651 24.4818 6.128 24.2875 6.28746L16 14.5875L7.71251 6.28746C7.51821 6.128 7.27155 6.04651 7.0205 6.05884C6.76945 6.07117 6.53196 6.17644 6.35422 6.35417C6.17649 6.53191 6.07122 6.7694 6.05889 7.02045C6.04656 7.2715 6.12805 7.51817 6.28751 7.71246L14.5875 16L6.28751 24.2875C6.09973 24.4771 5.99438 24.7331 5.99438 25C5.99438 25.2668 6.09973 25.5229 6.28751 25.7125C6.47865 25.8973 6.73413 26.0006 7.00001 26.0006C7.26589 26.0006 7.52137 25.8973 7.71251 25.7125L16 17.4125L24.2875 25.7125C24.4786 25.8973 24.7341 26.0006 25 26.0006C25.2659 26.0006 25.5214 25.8973 25.7125 25.7125C25.9003 25.5229 26.0056 25.2668 26.0056 25C26.0056 24.7331 25.9003 24.4771 25.7125 24.2875L17.4125 16Z" fill="black"/>
</svg>
